<?xml version="1.0" standalone="no"?>
<!DOCTYPE svg PUBLIC "-//W3C//DTD SVG 20010904//EN"
 "http://www.w3.org/TR/2001/REC-SVG-20010904/DTD/svg10.dtd">
<svg xmlns="http://www.w3.org/2000/svg" version="1.0" width="512.000000pt" height="512.000000pt" viewBox="0 0 512.000000 512.000000" preserveAspectRatio="xMidYMid meet">
    <linearGradient id="linearColors" x1="0" y1="0" x2="1" y2="1" gradientTransform="rotate(-45)">
       <stop offset="0%" stop-color="#e7c2a1"/>
       <stop offset="100%" stop-color="#81502e"/>
    </linearGradient>
<circle cx="250" cy="250" r="240" stroke="black" stroke-width="10" fill="url(#linearColors)"/>
<g transform="translate(0.000000,512.000000) scale(0.100000,-0.100000)" fill="#000000" stroke="none">
<path d="M1573 4337 c9 -24 929 -1612 941 -1625 10 -10 113 163 484 808 260 451 472 822 472 825 0 3 -428 5 -951 5 -784 0 -950 -2 -946 -13z m1677 -184 c-1 -5 -67 -123 -149 -263 l-147 -255 -433 0 -434 0 -148 255 c-82 140 -149 258 -149 263 0 4 329 7 730 7 402 0 730 -3 730 -7z"/>
<path d="M2482 2624 c-405 -697 -912 -1577 -909 -1580 2 -2 430 -3 951 -2 l946 3 -466 810 c-256 446 -469 816 -474 824 -5 10 -19 -6 -48 -55z m265 -513 c112 -194 202 -354 201 -355 -2 0 -195 0 -429 2 l-426 4 174 301 c96 166 193 333 215 371 36 61 42 67 51 50 6 -10 102 -178 214 -373z"/>
</g>
</svg>
